<mxfile host="app.diagrams.net" modified="2021-01-12T10:17:05.031Z" agent="5.0 (Macintosh; Intel Mac OS X 10_14_6) AppleWebKit/537.36 (KHTML, like Gecko) Chrome/87.0.4280.141 Safari/537.36" etag="-66SHHF1CbnlfLFZIEsK" version="14.1.9" type="github">
  <diagram id="Y8er3WH9kHhoqvvzDmWS" name="Page-1">
    <mxGraphModel dx="1722" dy="943" grid="1" gridSize="10" guides="1" tooltips="1" connect="1" arrows="1" fold="1" page="1" pageScale="1" pageWidth="1300" pageHeight="1300" background="#283618" math="0" shadow="1">
      <root>
        <mxCell id="0" />
        <mxCell id="1" parent="0" />
      </root>
    </mxGraphModel>
  </diagram>
</mxfile>
